<?xml version="1.0" standalone="no"?><!DOCTYPE svg PUBLIC "-//W3C//DTD SVG 1.1//EN" "http://www.w3.org/Graphics/SVG/1.1/DTD/svg11.dtd"><svg t="1626162702805" class="icon" viewBox="0 0 1024 1024" version="1.1" xmlns="http://www.w3.org/2000/svg" p-id="1787" width="16" height="16" xmlns:xlink="http://www.w3.org/1999/xlink"><defs><style type="text/css"></style></defs><path d="M512 597.333333a298.666667 298.666667 0 1 1 298.666667-298.666666 298.666667 298.666667 0 0 1-298.666667 298.666666z m0-512a213.333333 213.333333 0 1 0 213.333333 213.333334A213.333333 213.333333 0 0 0 512 85.333333z" fill="#ffffff" p-id="1788"></path><path d="M855.04 1024H168.96a125.013333 125.013333 0 0 1-106.666667-59.946667 128 128 0 0 1-5.973333-126.08 514.773333 514.773333 0 0 1 231.893333-231.893333 84.053333 84.053333 0 0 1 97.706667 16.64L512 752l126.08-129.28a84.053333 84.053333 0 0 1 97.706667-16.64 514.773333 514.773333 0 0 1 231.893333 231.893333 128 128 0 0 1-5.973333 126.08 125.013333 125.013333 0 0 1-106.666667 59.946667zM324.693333 682.666667a436.693333 436.693333 0 0 0-192 193.706666 43.733333 43.733333 0 0 0 2.133334 42.666667 39.893333 39.893333 0 0 0 34.133333 19.626667h686.08a39.893333 39.893333 0 0 0 34.133333-19.626667 43.733333 43.733333 0 0 0 2.133334-42.666667 429.44 429.44 0 0 0-192-193.066666l-127.36 129.493333a83.413333 83.413333 0 0 1-119.893334 0z m343.893334-29.866667z" fill="#ffffff" p-id="1789"></path></svg>