<?xml version="1.0" standalone="no"?><!DOCTYPE svg PUBLIC "-//W3C//DTD SVG 1.1//EN" "http://www.w3.org/Graphics/SVG/1.1/DTD/svg11.dtd"><svg t="1626162632066" class="icon" viewBox="0 0 1024 1024" version="1.1" xmlns="http://www.w3.org/2000/svg" p-id="1374" width="16" height="16" xmlns:xlink="http://www.w3.org/1999/xlink"><defs><style type="text/css"></style></defs><path d="M341.333333 341.333333m-341.333333 0a341.333333 341.333333 0 1 0 682.666667 0 341.333333 341.333333 0 1 0-682.666667 0Z" fill="#ffffff" p-id="1375"></path><path d="M576 597.333333a256 256 0 1 1 256-256 256 256 0 0 1-256 256z m0-426.666666a170.666667 170.666667 0 1 0 170.666667 170.666666 170.666667 170.666667 0 0 0-170.666667-170.666666z" fill="#ffffff" p-id="1376"></path><path d="M901.76 1024H250.24A120.106667 120.106667 0 0 1 149.333333 966.826667a132.053333 132.053333 0 0 1-7.893333-128A504.746667 504.746667 0 0 1 362.666667 606.506667a80 80 0 0 1 96.853333 17.066666L576 750.506667l117.546667-126.933334a80 80 0 0 1 96.853333-17.066666A504.746667 504.746667 0 0 1 1011.2 838.826667a132.053333 132.053333 0 0 1-7.893333 128A120.106667 120.106667 0 0 1 901.76 1024zM398.08 682.666667a418.986667 418.986667 0 0 0-180.053333 192 47.36 47.36 0 0 0 2.773333 46.08 34.773333 34.773333 0 0 0 29.44 17.493333h651.52a34.773333 34.773333 0 0 0 29.44-17.493333 47.36 47.36 0 0 0 2.773333-46.08 418.986667 418.986667 0 0 0-180.053333-192l-118.613333 128a80.213333 80.213333 0 0 1-118.613334 0zM725.333333 652.373333z" fill="#ffffff" p-id="1377"></path></svg>