<?xml version="1.0" standalone="no"?><!DOCTYPE svg PUBLIC "-//W3C//DTD SVG 1.1//EN" "http://www.w3.org/Graphics/SVG/1.1/DTD/svg11.dtd"><svg t="1626162316190" class="icon" viewBox="0 0 1024 1024" version="1.1" xmlns="http://www.w3.org/2000/svg" p-id="2244" width="32" height="32" xmlns:xlink="http://www.w3.org/1999/xlink"><defs><style type="text/css"></style></defs><path d="M815.07 529H248.03c-9.39 0-17-7.61-17-17s7.61-17 17-17h567.04c9.39 0 17 7.61 17 17s-7.61 17-17 17zM815.07 719.18H381.86c-9.39 0-17-7.61-17-17s7.61-17 17-17h433.21c9.39 0 17 7.61 17 17s-7.61 17-17 17zM815.07 338.82H381.86c-9.39 0-17-7.61-17-17s7.61-17 17-17h433.21c9.39 0 17 7.61 17 17s-7.61 17-17 17z" fill="#ffffff" p-id="2245"></path><path d="M232.1 512.76l84.44-84.44c3.64-3.64 5.65-8.49 5.65-13.64s-2.01-10-5.65-13.64a19.176 19.176 0 0 0-13.64-5.65c-5.15 0-10 2.01-13.64 5.65l-87.08 87.08c-6.54 6.54-10.18 15.23-10.25 24.55v0.16c0 9.23 3.58 17.9 10.09 24.4l85.72 85.72c3.64 3.64 8.49 5.65 13.64 5.65s10-2.01 13.64-5.65c7.52-7.52 7.52-19.76 0-27.28l-82.92-82.91z" fill="#ffffff" p-id="2246"></path></svg>